<svg version="1.1" id="Layer_1" xmlns="http://www.w3.org/2000/svg" xmlns:xlink="http://www.w3.org/1999/xlink" x="0px" y="0px"
	 width="100%" viewBox="0 0 1560 760" enable-background="new 0 0 1560 760" xml:space="preserve">
<path fill="#E7FCFF" opacity="1.000000" stroke="none" 
	d="
M967.000000,761.000000 
	C644.666687,761.000000 322.833344,761.000000 1.000000,761.000000 
	C1.000000,507.666656 1.000000,254.333328 1.000000,1.000000 
	C521.000000,1.000000 1041.000000,1.000000 1561.000000,1.000000 
	C1561.000000,254.333328 1561.000000,507.666656 1561.000000,761.000000 
	C1363.166626,761.000000 1165.333374,761.000000 967.000000,761.000000 
M910.030762,573.018188 
	C910.030762,573.018188 910.117126,573.105103 910.642273,572.762024 
	C910.804260,572.168762 910.966248,571.575439 911.257874,570.698181 
	C911.257874,570.698181 911.252747,570.386047 911.873352,570.054504 
	C914.002258,564.860962 916.131226,559.667419 918.816833,554.154968 
	C919.167114,553.430237 919.517395,552.705566 920.236511,551.405334 
	C920.815979,549.936523 921.395447,548.467773 922.148438,546.520874 
	C922.158691,546.351624 922.168945,546.182434 922.295166,545.735718 
	C922.295166,545.735718 922.238892,545.440308 922.864746,545.097961 
	C924.949585,540.152039 927.034363,535.206116 929.544067,529.939331 
	C929.705505,529.629395 929.866943,529.319458 930.487183,528.644348 
	C930.639771,528.089722 930.792297,527.535156 931.438293,526.649353 
	C931.593933,526.094421 931.749634,525.539490 932.237366,524.431946 
	C932.510071,523.628540 932.782776,522.825134 933.593323,521.590149 
	C937.729919,512.061646 941.866455,502.533112 946.557678,492.589844 
	C950.076294,484.736664 953.698608,476.927643 957.068115,469.011047 
	C958.665527,465.258026 959.780029,461.299500 961.543396,457.213745 
	C961.543396,457.213745 961.930481,456.924347 962.384460,456.730438 
	C962.663818,456.513092 962.808350,456.227478 963.065308,455.191193 
	C963.084900,454.708374 963.104492,454.225525 963.529175,453.234497 
	C965.715637,447.881378 967.902100,442.528259 970.557556,436.880127 
	C971.017395,436.572174 971.477234,436.264191 972.422913,435.713684 
	C972.488892,435.376923 972.554871,435.040161 972.664429,434.225739 
	C972.713867,433.909790 972.729187,433.592194 973.107666,432.636658 
	C975.424866,427.685699 977.793213,422.757904 980.048645,417.778992 
	C984.801331,407.287231 981.383972,402.050903 969.780884,402.034363 
	C953.518860,402.011169 937.256775,402.027985 920.693420,401.311615 
	C920.855652,397.562225 920.435852,393.676636 921.276001,390.085846 
	C926.195923,369.058167 924.703796,347.121674 930.781128,326.211578 
	C933.201599,317.883789 933.727051,308.983154 934.868347,300.310791 
	C936.679626,286.547028 938.230469,272.749146 939.991455,258.978485 
	C941.542664,246.848129 943.338623,234.748474 944.824402,222.610550 
	C946.029724,212.763824 947.104736,202.893967 947.896545,193.007065 
	C948.251770,188.571426 945.202942,185.250046 940.802063,185.149292 
	C937.381897,185.070999 933.948425,185.988358 930.506226,186.303940 
	C928.570740,186.481384 926.605591,186.335892 924.653870,186.335892 
	C924.650757,185.713654 924.647644,185.091415 924.644592,184.469177 
	C916.100952,191.820892 910.139038,184.656189 903.364441,180.783386 
	C901.724487,185.281967 898.779175,186.617340 894.646362,186.111984 
	C893.498535,185.971634 892.245422,187.166412 890.991211,187.306320 
	C889.285767,187.496552 887.486877,187.491867 885.810913,187.156647 
	C883.166199,186.627670 880.591553,185.124115 877.985229,185.119232 
	C814.857971,185.001022 751.730347,185.027206 688.602844,185.027237 
	C656.289551,185.027267 623.976257,185.017120 591.662964,185.035049 
	C584.909851,185.038788 583.157471,186.699066 583.126648,193.792252 
	C584.083862,203.263931 584.908020,212.751602 586.045227,222.201630 
	C586.802612,228.495590 588.006470,234.735825 589.009338,241.884354 
	C590.010498,249.410080 591.053833,256.930481 592.003113,264.462738 
	C593.469116,276.095276 594.845215,287.739105 596.306580,299.372253 
	C597.890991,311.985260 599.529236,324.591522 601.059937,337.598877 
	C601.059937,337.598877 600.898987,337.972595 600.131897,338.190094 
	C599.958618,346.104095 599.785339,354.018127 599.749451,362.781464 
	C599.703491,364.210205 599.657532,365.638916 599.189148,367.744385 
	C599.111328,368.735504 598.966675,369.726501 598.965515,370.717712 
	C598.940063,391.964264 599.020020,413.211426 598.878784,434.457123 
	C598.813354,444.295319 598.080200,454.130981 598.091064,463.967285 
	C598.102844,474.591736 598.923401,485.217041 598.873047,495.839508 
	C598.757996,520.121033 598.315491,544.401001 598.033142,568.681885 
	C597.971985,573.941406 597.917542,579.206177 598.105896,584.459717 
	C598.149597,585.678650 599.200806,586.861511 600.375305,588.220337 
	C600.566284,588.288269 600.757324,588.356262 601.683472,588.809021 
	C602.674561,588.885437 603.665649,589.028564 604.656738,589.028687 
	C670.276550,589.037476 735.896362,589.036438 801.516174,589.032288 
	C833.799438,589.030212 866.082825,589.038757 898.365906,588.966614 
	C900.234375,588.962463 902.101257,588.274292 904.291199,587.292053 
	C905.256409,584.687744 906.221680,582.083435 907.666504,579.120667 
	C907.843689,578.769470 908.020874,578.418335 908.622192,577.634399 
	C908.798096,576.852661 908.974060,576.070984 909.625488,574.861755 
	C909.798340,574.262939 909.971130,573.664124 910.030762,573.018188 
z"/>
<path fill="#D6F8FD" opacity="1.000000" stroke="none" 
	d="
M589.010498,241.000122 
	C588.006470,234.735825 586.802612,228.495590 586.045227,222.201630 
	C584.908020,212.751602 584.083862,203.263931 583.429321,193.318207 
	C585.369995,191.923462 586.973145,190.310562 588.653137,190.226074 
	C592.162292,190.049545 595.711975,190.938751 599.245178,190.940720 
	C685.721802,190.989227 772.198364,190.978638 858.674988,190.978683 
	C863.099304,190.978683 867.540344,190.747681 871.941833,191.064651 
	C874.660034,191.260376 877.318115,192.290939 880.874573,193.159561 
	C878.819092,195.505127 877.332703,196.566910 876.743652,197.998032 
	C875.266785,201.585983 874.196167,205.341187 872.956787,209.170715 
	C872.951050,209.312164 872.960449,209.595795 872.494873,209.593887 
	C864.746155,209.594849 857.462891,209.574585 850.179871,209.605377 
	C834.798950,209.670380 819.418213,209.762070 803.573730,209.749847 
	C765.579834,209.656891 728.049500,209.656891 689.736389,209.656891 
	C689.736389,218.120712 689.736389,226.057327 689.330383,233.975616 
	C686.144592,233.638824 683.365479,233.050980 680.584839,233.043655 
	C654.002319,232.973633 627.419556,233.005646 600.836853,232.992523 
	C599.181702,232.991714 597.386902,233.246109 595.898438,232.710770 
	C591.867432,231.260925 591.484070,233.720215 590.942505,236.616913 
	C590.656799,238.144974 589.676941,239.543243 589.010498,241.000122 
z"/>
<path fill="#C2F3FB" opacity="1.000000" stroke="none" 
	d="
M872.962585,209.029297 
	C874.196167,205.341187 875.266785,201.585983 876.743652,197.998032 
	C877.332703,196.566910 878.819092,195.505127 880.874573,193.159561 
	C877.318115,192.290939 874.660034,191.260376 871.941833,191.064651 
	C867.540344,190.747681 863.099304,190.978683 858.674988,190.978683 
	C772.198364,190.978638 685.721802,190.989227 599.245178,190.940720 
	C595.711975,190.938751 592.162292,190.049545 588.653137,190.226074 
	C586.973145,190.310562 585.369995,191.923462 583.389221,192.900452 
	C583.157471,186.699066 584.909851,185.038788 591.662964,185.035049 
	C623.976257,185.017120 656.289551,185.027267 688.602844,185.027237 
	C751.730347,185.027206 814.857971,185.001022 877.985229,185.119232 
	C880.591553,185.124115 883.166199,186.627670 885.810913,187.156647 
	C887.486877,187.491867 889.285767,187.496552 890.991211,187.306320 
	C892.245422,187.166412 893.498535,185.971634 894.646362,186.111984 
	C898.779175,186.617340 901.724487,185.281967 903.364441,180.783386 
	C910.139038,184.656189 916.100952,191.820892 924.644592,184.469177 
	C924.647644,185.091415 924.650757,185.713654 924.653870,186.335892 
	C926.605591,186.335892 928.570740,186.481384 930.506226,186.303940 
	C933.948425,185.988358 937.381897,185.070999 940.802063,185.149292 
	C945.202942,185.250046 948.251770,188.571426 947.896545,193.007065 
	C947.104736,202.893967 946.029724,212.763824 944.824402,222.610550 
	C943.338623,234.748474 941.542664,246.848129 939.991455,258.978485 
	C938.230469,272.749146 936.679626,286.547028 934.868347,300.310791 
	C933.727051,308.983154 933.201599,317.883789 930.781128,326.211578 
	C924.703796,347.121674 926.195923,369.058167 921.276001,390.085846 
	C920.435852,393.676636 920.855652,397.562225 920.584473,401.916870 
	C915.225098,402.316895 909.974609,402.111633 904.720093,401.645874 
	C904.633728,401.232330 904.551453,401.079285 904.582886,400.476379 
	C904.708069,377.365967 904.753540,354.705353 904.714355,332.044891 
	C904.698792,323.057770 904.495056,314.070984 904.543335,304.635956 
	C904.711365,284.792938 904.713013,265.397980 905.098389,245.881149 
	C906.450256,245.516602 907.414612,245.257156 908.387207,245.033783 
	C922.563477,241.778351 932.054749,230.083466 931.879456,216.080536 
	C931.700684,201.801331 921.764526,190.111038 907.463989,187.354782 
	C894.399170,184.836700 880.874512,192.475998 875.249512,205.477051 
	C874.697815,206.752213 873.734741,207.849457 872.962585,209.029297 
z"/>
<path fill="#C2F3FB" opacity="1.000000" stroke="none" 
	d="
M589.009888,241.442230 
	C589.676941,239.543243 590.656799,238.144974 590.942505,236.616913 
	C591.484070,233.720215 591.867432,231.260925 595.898438,232.710770 
	C597.386902,233.246109 599.181702,232.991714 600.836853,232.992523 
	C627.419556,233.005646 654.002319,232.973633 680.584839,233.043655 
	C683.365479,233.050980 686.144592,233.638824 689.448975,234.429260 
	C689.968994,239.925323 689.964417,244.949463 689.500732,250.064270 
	C682.049133,250.214310 675.047791,250.507278 668.067444,250.243729 
	C664.003967,250.090317 662.997986,251.550583 663.028259,255.410004 
	C663.141846,269.897003 662.933167,284.386505 662.388428,298.906616 
	C655.458069,298.952881 648.979248,299.130493 642.513306,298.917053 
	C639.025513,298.801910 637.910767,299.975983 637.972351,303.470215 
	C638.138916,312.926788 637.954285,322.389557 637.447327,331.887756 
	C629.582886,331.957153 622.172180,332.211029 614.779907,331.946350 
	C609.348816,331.751862 604.703674,332.882385 601.144043,337.200714 
	C599.529236,324.591522 597.890991,311.985260 596.306580,299.372253 
	C594.845215,287.739105 593.469116,276.095276 592.003113,264.462738 
	C591.053833,256.930481 590.010498,249.410080 589.009888,241.442230 
z"/>
<path fill="#5ED2E6" opacity="1.000000" stroke="none" 
	d="
M922.238892,545.440308 
	C922.238892,545.440308 922.295166,545.735718 922.044495,545.933533 
	C921.704834,546.226440 921.522949,546.374084 921.542114,546.408081 
	C921.661377,546.619202 921.825623,546.804871 921.974976,546.998962 
	C921.395447,548.467773 920.815979,549.936523 919.716797,551.767639 
	C918.884766,552.911255 918.572449,553.692566 918.260193,554.473816 
	C916.131226,559.667419 914.002258,564.860962 911.510376,569.810669 
	C913.513550,564.321411 909.700745,562.040588 906.566345,558.928894 
	C875.666870,528.253845 844.891602,497.453278 814.188843,466.581207 
	C811.418762,463.795776 809.400879,460.262299 807.497803,457.058838 
	C813.265564,456.827454 818.661926,457.436157 823.899170,456.634277 
	C823.861023,455.720428 823.822815,454.806580 823.784668,453.892731 
	C812.215576,453.892731 800.646423,453.892731 789.049133,453.530518 
	C786.937134,450.406372 785.227661,447.210144 782.666016,445.002655 
	C780.015381,442.718353 778.534790,440.436401 779.299133,436.714508 
	C789.407776,436.311859 799.200256,436.178223 809.450562,436.052429 
	C812.966248,436.141968 816.023926,436.223663 819.060608,436.657166 
	C820.823303,440.215302 821.903687,444.311005 824.561035,446.412689 
	C828.244263,449.325653 830.041809,455.956268 836.838989,454.342651 
	C838.929810,455.539581 840.984741,456.329254 843.030884,457.494019 
	C843.384766,459.101349 843.426819,460.589539 844.168762,461.519043 
	C846.645813,464.622375 849.228333,467.670197 852.028442,470.482391 
	C872.101746,490.642731 892.248291,510.730133 912.339050,530.873169 
	C914.086121,532.624695 915.253662,535.545227 917.290771,536.297668 
	C922.014099,538.042236 923.096680,541.037598 922.238892,545.440308 
z"/>
<path fill="#40CAE2" opacity="1.000000" stroke="none" 
	d="
M601.101990,337.399780 
	C604.703674,332.882385 609.348816,331.751862 614.779907,331.946350 
	C622.172180,332.211029 629.582886,331.957153 637.507812,332.185913 
	C638.060547,332.646179 638.091064,332.846191 638.089844,333.509796 
	C637.999512,361.635071 637.940918,389.296753 637.508972,416.970245 
	C632.132751,419.776001 626.957031,422.308228 622.189270,425.458069 
	C619.136536,427.474884 616.686157,430.403412 613.626160,432.983582 
	C608.899475,437.024506 604.512390,441.005096 600.033203,444.525635 
	C599.936462,427.829987 599.967163,411.594269 599.913818,395.358856 
	C599.882874,385.928223 599.716858,376.498047 599.611633,367.067657 
	C599.657532,365.638916 599.703491,364.210205 599.811035,361.911469 
	C600.214783,353.351837 600.556885,345.662231 600.898987,337.972595 
	C600.898987,337.972595 601.059937,337.598877 601.101990,337.399780 
z"/>
<path fill="#4BCBE1" opacity="1.000000" stroke="none" 
	d="
M807.033630,457.076233 
	C809.400879,460.262299 811.418762,463.795776 814.188843,466.581207 
	C844.891602,497.453278 875.666870,528.253845 906.566345,558.928894 
	C909.700745,562.040588 913.513550,564.321411 911.200073,569.976440 
	C911.252747,570.386047 911.257874,570.698181 910.920837,571.009521 
	C910.428223,571.915588 910.272644,572.510376 910.117065,573.105103 
	C910.117126,573.105103 910.030762,573.018188 909.795288,573.205505 
	C909.423157,574.024963 909.286621,574.657104 909.150024,575.289246 
	C908.974060,576.070984 908.798096,576.852661 908.123657,577.983093 
	C907.479004,578.714233 907.333008,579.096741 907.186890,579.479187 
	C906.221680,582.083435 905.256409,584.687744 903.663818,587.598999 
	C891.009644,587.817261 878.982727,587.728577 867.094666,587.295654 
	C870.494690,586.636658 873.755859,586.322021 877.429993,586.007935 
	C885.395691,586.008545 892.948425,586.008545 901.525269,586.008545 
	C900.735779,583.115906 900.730957,580.747192 899.569824,579.317566 
	C896.881042,576.007141 893.640808,573.143005 890.610168,570.112000 
	C855.496155,534.994202 820.411011,499.847443 785.200378,464.826813 
	C782.561401,462.202118 781.393127,460.097900 784.473755,457.019958 
	C792.305908,457.034821 799.669739,457.055511 807.033630,457.076233 
z"/>
<path fill="#9DE3ED" opacity="1.000000" stroke="none" 
	d="
M904.724182,401.906342 
	C909.974609,402.111633 915.225098,402.316895 920.735107,402.274902 
	C937.256775,402.027985 953.518860,402.011169 969.780884,402.034363 
	C981.383972,402.050903 984.801331,407.287231 980.048645,417.778992 
	C977.793213,422.757904 975.424866,427.685699 972.467529,432.913025 
	C945.554810,433.120148 919.282166,433.050934 892.999878,432.623047 
	C892.890930,431.783844 892.960327,431.124084 892.667725,430.848877 
	C884.286377,422.963715 875.815369,415.172791 867.514893,407.204071 
	C866.282959,406.021362 865.827148,404.030182 865.469543,402.312683 
	C878.284607,402.131958 890.642395,402.051605 903.285889,402.036743 
	C903.955750,402.036926 904.339966,401.971619 904.724182,401.906342 
z"/>
<path fill="#71D7E8" opacity="1.000000" stroke="none" 
	d="
M922.551819,545.269165 
	C923.096680,541.037598 922.014099,538.042236 917.290771,536.297668 
	C915.253662,535.545227 914.086121,532.624695 912.339050,530.873169 
	C892.248291,510.730133 872.101746,490.642731 852.028442,470.482391 
	C849.228333,467.670197 846.645813,464.622375 844.168762,461.519043 
	C843.426819,460.589539 843.384766,459.101349 843.494751,457.464111 
	C853.656494,457.092743 863.345581,457.126343 873.034363,457.521057 
	C874.911560,460.484589 876.477417,463.398346 878.716492,465.639465 
	C894.490173,481.427155 910.461426,497.017548 926.212708,512.827271 
	C928.881287,515.505859 930.793701,518.937805 933.055481,522.021729 
	C932.782776,522.825134 932.510071,523.628540 931.793823,524.744385 
	C931.215088,525.698120 931.079956,526.339294 930.944824,526.980530 
	C930.792297,527.535156 930.639771,528.089722 930.018433,528.960510 
	C929.406189,529.604492 929.262695,529.932312 929.119141,530.260193 
	C927.034363,535.206116 924.949585,540.152039 922.551819,545.269165 
z"/>
<path fill="#82DCEB" opacity="1.000000" stroke="none" 
	d="
M933.324402,521.805908 
	C930.793701,518.937805 928.881287,515.505859 926.212708,512.827271 
	C910.461426,497.017548 894.490173,481.427155 878.716492,465.639465 
	C876.477417,463.398346 874.911560,460.484589 873.498047,457.475769 
	C890.322021,457.095245 906.682007,457.121124 923.022095,457.519714 
	C923.257446,460.182770 922.743835,463.055328 923.939148,464.633728 
	C925.985657,467.336151 929.434631,468.936249 931.702881,471.519012 
	C937.411987,478.019867 946.338074,482.466919 946.002991,493.004578 
	C941.866455,502.533112 937.729919,512.061646 933.324402,521.805908 
z"/>
<path fill="#9DE3ED" opacity="1.000000" stroke="none" 
	d="
M970.088501,437.175171 
	C967.902100,442.528259 965.715637,447.881378 962.851196,453.561340 
	C943.477844,453.817383 924.782410,453.746552 906.055359,453.333527 
	C904.211365,450.109039 902.950195,446.536926 900.438416,444.529663 
	C897.681213,442.326263 896.689087,440.144409 897.397400,436.919189 
	C902.929688,436.880432 908.051147,436.846375 913.172302,436.870911 
	C932.144409,436.961853 951.116455,437.072113 970.088501,437.175171 
z"/>
<path fill="#9DE3ED" opacity="1.000000" stroke="none" 
	d="
M946.280334,492.797211 
	C946.338074,482.466919 937.411987,478.019867 931.702881,471.519012 
	C929.434631,468.936249 925.985657,467.336151 923.939148,464.633728 
	C922.743835,463.055328 923.257446,460.182770 923.485229,457.475403 
	C936.349915,457.183624 948.731628,457.308868 961.113281,457.434082 
	C959.780029,461.299500 958.665527,465.258026 957.068115,469.011047 
	C953.698608,476.927643 950.076294,484.736664 946.280334,492.797211 
z"/>
<path fill="#29B9D1" opacity="1.000000" stroke="none" 
	d="
M970.322998,437.027649 
	C951.116455,437.072113 932.144409,436.961853 913.172302,436.870911 
	C908.051147,436.846375 902.929688,436.880432 896.931335,436.882874 
	C884.376465,436.895233 872.698730,436.912323 860.697510,436.670532 
	C846.609985,436.376221 832.845825,436.340790 819.081665,436.305359 
	C816.023926,436.223663 812.966248,436.141968 809.450562,435.690918 
	C808.994263,434.600891 808.995850,433.880249 809.450500,433.116608 
	C812.937744,433.045807 815.971924,433.018005 819.473999,433.002930 
	C828.298706,432.997131 836.655518,432.978546 845.479614,432.984558 
	C861.634521,433.000000 877.322021,432.990845 893.009521,432.981689 
	C919.282166,433.050934 945.554810,433.120148 972.268921,433.231201 
	C972.729187,433.592194 972.713867,433.909790 972.456177,434.627380 
	C972.035522,435.301636 971.931946,435.610687 971.937073,435.956207 
	C971.477234,436.264191 971.017395,436.572174 970.322998,437.027649 
z"/>
<path fill="#29B9D1" opacity="1.000000" stroke="none" 
	d="
M961.328369,457.323914 
	C948.731628,457.308868 936.349915,457.183624 923.505127,457.102722 
	C906.682007,457.121124 890.322021,457.095245 873.498291,457.114685 
	C863.345581,457.126343 853.656494,457.092743 843.503540,457.089050 
	C840.984741,456.329254 838.929810,455.539581 837.197876,454.110229 
	C839.484741,453.345581 841.451111,453.083618 843.412170,453.118744 
	C852.958008,453.289764 862.502380,453.540314 872.508423,453.824738 
	C884.008728,453.816406 895.047852,453.746063 906.086975,453.675690 
	C924.782410,453.746552 943.477844,453.817383 962.648682,453.815460 
	C963.104492,454.225525 963.084900,454.708374 962.714233,455.628662 
	C962.077942,456.281067 961.933716,456.567169 961.930481,456.924347 
	C961.930481,456.924347 961.543396,457.213745 961.328369,457.323914 
z"/>
<path fill="#C2F3FB" opacity="1.000000" stroke="none" 
	d="
M866.955872,587.639893 
	C878.982727,587.728577 891.009644,587.817261 903.502686,587.905151 
	C902.101257,588.274292 900.234375,588.962463 898.365906,588.966614 
	C866.082825,589.038757 833.799438,589.030212 801.516174,589.032288 
	C735.896362,589.036438 670.276550,589.037476 604.656738,589.028687 
	C603.665649,589.028564 602.674561,588.885437 601.777344,588.509155 
	C679.084534,588.142273 756.297791,588.078369 833.511047,587.995178 
	C836.331299,587.992188 839.151245,587.800110 842.390015,587.753235 
	C846.216980,587.625000 849.625305,587.439697 853.407104,587.407104 
	C858.172363,587.586609 862.564087,587.613281 866.955872,587.639893 
z"/>
<path fill="#C2F3FB" opacity="1.000000" stroke="none" 
	d="
M599.400391,367.406006 
	C599.716858,376.498047 599.882874,385.928223 599.913818,395.358856 
	C599.967163,411.594269 599.936462,427.829987 599.978027,444.995422 
	C599.930603,489.011230 599.839722,532.097168 599.772644,575.183167 
	C599.766418,579.170166 599.911926,583.157349 599.934082,587.372925 
	C599.881165,587.601318 599.788391,588.060974 599.788391,588.060974 
	C599.200806,586.861511 598.149597,585.678650 598.105896,584.459717 
	C597.917542,579.206177 597.971985,573.941406 598.033142,568.681885 
	C598.315491,544.401001 598.757996,520.121033 598.873047,495.839508 
	C598.923401,485.217041 598.102844,474.591736 598.091064,463.967285 
	C598.080200,454.130981 598.813354,444.295319 598.878784,434.457123 
	C599.020020,413.211426 598.940063,391.964264 598.965515,370.717712 
	C598.966675,369.726501 599.111328,368.735504 599.400391,367.406006 
z"/>
<path fill="#4BCBE1" opacity="1.000000" stroke="none" 
	d="
M600.081848,588.140625 
	C599.788391,588.060974 599.881165,587.601318 600.285645,587.357056 
	C601.159119,587.085876 601.628113,587.058960 602.525757,587.046753 
	C605.273560,587.056396 607.592773,587.051270 610.361328,587.069885 
	C612.903625,587.075623 614.996521,587.057617 617.547729,587.051758 
	C622.309265,587.055908 626.612610,587.047974 631.392700,587.063721 
	C637.937378,587.067871 644.005249,587.048279 650.534119,587.041260 
	C655.641052,587.044250 660.286987,587.034790 665.408997,587.047913 
	C673.605530,587.046875 681.325989,587.023193 689.511963,587.012634 
	C708.309387,586.990295 726.641235,586.954834 745.441406,586.950684 
	C751.260742,586.956787 756.611755,586.931580 762.432861,586.937012 
	C773.260559,586.939941 783.618103,586.912170 794.443604,586.925598 
	C799.945740,586.955872 804.980042,586.944946 810.398987,586.957397 
	C812.213562,586.679688 813.643494,586.378723 815.519287,586.078491 
	C818.655212,586.069946 821.345337,586.060730 824.412842,586.222534 
	C826.587097,586.588867 828.379944,586.841125 830.181641,586.967957 
	C834.109192,587.244629 838.041199,587.457336 841.971375,587.696167 
	C839.151245,587.800110 836.331299,587.992188 833.511047,587.995178 
	C756.297791,588.078369 679.084534,588.142273 601.409790,588.316772 
	C600.757324,588.356262 600.566284,588.288269 600.081848,588.140625 
z"/>
<path fill="#C2F3FB" opacity="1.000000" stroke="none" 
	d="
M600.515442,338.081360 
	C600.556885,345.662231 600.214783,353.351837 599.742310,361.486816 
	C599.785339,354.018127 599.958618,346.104095 600.515442,338.081360 
z"/>
<path fill="#71D7E8" opacity="1.000000" stroke="none" 
	d="
M918.538513,554.314392 
	C918.572449,553.692566 918.884766,552.911255 919.532349,552.055420 
	C919.517395,552.705566 919.167114,553.430237 918.538513,554.314392 
z"/>
<path fill="#82DCEB" opacity="1.000000" stroke="none" 
	d="
M931.191528,526.814941 
	C931.079956,526.339294 931.215088,525.698120 931.627808,525.020752 
	C931.749634,525.539490 931.593933,526.094421 931.191528,526.814941 
z"/>
<path fill="#5ED2E6" opacity="1.000000" stroke="none" 
	d="
M910.379639,572.933594 
	C910.272644,572.510376 910.428223,571.915588 910.855957,571.151489 
	C910.966248,571.575439 910.804260,572.168762 910.379639,572.933594 
z"/>
<path fill="#5ED2E6" opacity="1.000000" stroke="none" 
	d="
M909.387756,575.075500 
	C909.286621,574.657104 909.423157,574.024963 909.851868,573.229004 
	C909.971130,573.664124 909.798340,574.262939 909.387756,575.075500 
z"/>
<path fill="#82DCEB" opacity="1.000000" stroke="none" 
	d="
M929.331665,530.099731 
	C929.262695,529.932312 929.406189,529.604492 929.789001,529.143127 
	C929.866943,529.319458 929.705505,529.629395 929.331665,530.099731 
z"/>
<path fill="#71D7E8" opacity="1.000000" stroke="none" 
	d="
M922.061707,546.759888 
	C921.825623,546.804871 921.661377,546.619202 921.542114,546.408081 
	C921.522949,546.374084 921.704834,546.226440 921.986450,546.072266 
	C922.168945,546.182434 922.158691,546.351624 922.061707,546.759888 
z"/>
<path fill="#5ED2E6" opacity="1.000000" stroke="none" 
	d="
M907.426758,579.299927 
	C907.333008,579.096741 907.479004,578.714233 907.911621,578.199463 
	C908.020874,578.418335 907.843689,578.769470 907.426758,579.299927 
z"/>
<path fill="#82DCEB" opacity="1.000000" stroke="none" 
	d="
M962.157471,456.827393 
	C961.933716,456.567169 962.077942,456.281067 962.590637,455.969849 
	C962.808350,456.227478 962.663818,456.513092 962.157471,456.827393 
z"/>
<path fill="#9DE3ED" opacity="1.000000" stroke="none" 
	d="
M972.179993,435.834961 
	C971.931946,435.610687 972.035522,435.301636 972.434326,434.866211 
	C972.554871,435.040161 972.488892,435.376923 972.179993,435.834961 
z"/>
<path fill="#243A5B" opacity="1.000000" stroke="none" 
	d="
M903.000183,401.971252 
	C890.642395,402.051605 878.284607,402.131958 865.014221,402.195648 
	C849.072144,402.259949 834.042664,402.340912 818.642700,402.307648 
	C817.509460,402.276398 816.746765,402.359375 815.578674,402.337952 
	C813.788940,402.307831 812.404541,402.382050 810.693726,402.335876 
	C809.909668,402.138062 809.452209,402.060699 808.690125,401.701233 
	C800.643127,401.288361 792.900513,401.065948 785.158264,401.076447 
	C782.441956,401.080109 779.726501,401.655792 776.544006,402.025635 
	C768.389099,402.203400 760.700867,402.325775 752.561951,402.325928 
	C748.065857,402.290619 744.020386,402.377563 739.588745,402.353638 
	C738.144043,402.320496 737.085388,402.398224 735.572632,402.351746 
	C723.051086,402.312256 710.983582,402.397003 698.948364,402.369568 
	C698.980530,402.257385 698.977051,402.024048 698.798462,401.775635 
	C697.751343,401.693787 696.882812,401.860382 695.636292,402.060181 
	C694.500000,402.070343 693.741699,402.047272 692.733582,401.738770 
	C691.654968,399.556763 690.113464,397.663849 690.103699,395.763062 
	C689.937744,363.494446 689.961853,331.224884 689.959778,298.489899 
	C689.970337,282.007385 689.965088,265.990479 689.959839,249.973587 
	C689.964417,244.949463 689.968994,239.925323 689.854980,234.447571 
	C689.736389,226.057327 689.736389,218.120712 689.736389,209.656891 
	C728.049500,209.656891 765.579834,209.656891 803.598511,210.116547 
	C806.665283,214.154510 808.939331,218.008789 811.884155,221.254562 
	C818.330994,228.360382 824.938660,235.343658 831.845337,241.998535 
	C835.076965,245.112381 838.879333,248.959915 842.905823,249.647324 
	C851.337585,251.086838 860.086731,250.778732 868.710388,250.951599 
	C877.195190,251.121704 877.892334,251.665512 877.979980,260.375031 
	C878.036560,266.000610 877.990601,271.627197 877.990601,277.253357 
	C878.481262,277.026489 878.971924,276.799652 879.462585,276.572815 
	C881.273071,278.503448 883.793640,280.130737 884.770630,282.417542 
	C888.919067,292.127380 898.044189,297.372437 904.376953,305.084045 
	C904.495056,314.070984 904.698792,323.057770 904.714355,332.044891 
	C904.753540,354.705353 904.708069,377.365967 904.345215,400.511017 
	C903.662598,401.320770 903.331421,401.645996 903.000183,401.971252 
M848.498657,283.954681 
	C848.669250,283.909576 848.839905,283.864502 849.905518,283.923004 
	C852.609131,283.893707 855.312805,283.864410 858.928833,284.038818 
	C864.280457,283.980225 869.632080,283.921631 875.848999,283.956512 
	C877.569580,283.469757 879.290222,282.983002 881.010803,282.496216 
	C879.270630,281.853333 877.556030,281.121552 875.778076,280.609985 
	C875.034790,280.396088 874.157043,280.649689 872.588135,280.244293 
	C864.281189,280.396240 855.974182,280.548187 846.948181,280.609772 
	C846.095642,281.389679 845.243164,282.169617 844.339355,283.366333 
	C844.339355,283.366333 844.635376,283.662750 844.635376,283.662750 
	C844.635376,283.662750 845.051758,283.613739 845.763977,283.830841 
	C846.505005,283.826691 847.246033,283.822540 848.498657,283.954681 
M738.663635,364.784363 
	C756.175659,364.867462 773.687744,364.957855 791.199829,365.002747 
	C791.797852,365.004272 792.396973,364.548645 793.545471,363.734985 
	C792.857727,362.792908 792.177368,361.034393 791.481262,361.028168 
	C774.237244,360.873810 756.991516,360.891144 739.746094,360.917603 
	C737.162476,360.921570 736.394714,362.052338 738.663635,364.784363 
M791.086365,231.816177 
	C788.063721,231.793869 785.041138,231.771545 781.803955,231.501282 
	C781.469116,231.339813 781.194763,231.422241 780.049805,231.824371 
	C766.366394,231.807205 752.682922,231.790039 738.783508,231.519196 
	C738.526428,231.638000 738.269409,231.756821 737.444458,232.406219 
	C736.514709,234.752426 737.342346,235.898758 739.835327,235.898254 
	C756.941223,235.894775 774.047180,235.920624 791.152832,235.857742 
	C794.326416,235.846085 795.056152,234.373291 792.811157,231.531906 
	C792.486389,231.340744 792.212341,231.409348 791.086365,231.816177 
M820.500000,316.130188 
	C838.974976,316.132172 857.450012,316.134705 875.924988,316.134705 
	C877.089783,316.134705 878.300110,316.304810 879.404419,316.040894 
	C880.225952,315.844574 880.910095,315.073700 881.655457,314.558685 
	C880.970642,313.763275 880.425842,312.691132 879.560181,312.253235 
	C878.754089,311.845459 877.606506,312.086914 876.609253,312.086884 
	C831.836609,312.085999 787.063965,312.089905 742.291321,312.094330 
	C741.459167,312.094421 740.502014,311.848907 739.824341,312.176086 
	C738.819275,312.661377 738.012268,313.556885 737.120972,314.277771 
	C737.950195,314.884796 738.704346,315.797699 739.627014,316.024323 
	C740.884949,316.333282 742.271484,316.127655 743.602844,316.127777 
	C768.901917,316.130005 794.200928,316.130005 820.500000,316.130188 
M821.500000,300.044556 
	C822.665405,300.044556 823.830872,300.045013 824.996277,300.044434 
	C830.490417,300.041626 835.989014,300.153961 841.474792,299.938324 
	C842.575745,299.895050 843.627625,298.604004 844.702148,297.888275 
	C843.707642,297.271851 842.759827,296.549469 841.699585,296.082245 
	C841.141357,295.836212 840.386780,296.034454 839.720825,296.034485 
	C807.255493,296.036072 774.790100,296.037842 742.324768,296.039764 
	C741.825317,296.039795 741.244446,295.876190 740.841431,296.073914 
	C739.565247,296.699951 738.355530,297.461395 737.120056,298.170471 
	C738.275146,298.792908 739.370667,299.625305 740.603210,299.974518 
	C741.682739,300.280396 742.916138,300.046082 744.081543,300.046082 
	C769.554382,300.045959 795.027161,300.045227 821.500000,300.044556 
M761.500000,267.959045 
	C787.285034,267.967712 813.070312,268.023956 838.854614,267.889099 
	C840.789368,267.878998 842.717041,266.504364 844.648010,265.764038 
	C842.831604,265.159332 841.020020,264.047333 839.198059,264.030029 
	C824.227478,263.887939 809.254883,263.948975 794.282959,263.949188 
	C776.815674,263.949432 759.347961,263.896667 741.881836,264.041718 
	C740.291260,264.054932 738.711243,265.339874 737.126343,266.034302 
	C738.762451,266.673370 740.380676,267.803741 742.037781,267.863800 
	C748.184937,268.086426 754.344849,267.956421 761.500000,267.959045 
M748.522949,344.743591 
	C745.526367,344.759247 742.519287,344.642456 739.540039,344.877808 
	C738.731506,344.941681 738.006958,346.068848 737.243896,346.708038 
	C737.996399,347.197205 738.693726,347.929871 739.514893,348.115997 
	C740.625854,348.367828 741.831787,348.211029 742.997009,348.211029 
	C774.130615,348.210938 805.264282,348.208771 836.397888,348.205322 
	C837.396545,348.205231 838.486389,348.435638 839.368286,348.110260 
	C840.253662,347.783630 840.931763,346.895386 841.700684,346.253235 
	C840.939941,345.757599 840.235352,345.016541 839.404724,344.826599 
	C838.295471,344.572998 837.088501,344.738922 835.923462,344.738922 
	C807.120728,344.739319 778.317932,344.741638 748.522949,344.743591 
M738.427673,332.298157 
	C756.008911,332.409637 773.590271,332.560364 791.171326,332.540527 
	C792.291687,332.539276 793.410645,331.214966 794.530212,330.506104 
	C793.474243,329.726837 792.423767,328.277130 791.361450,328.268402 
	C774.267334,328.127899 757.171692,328.163971 740.076416,328.179565 
	C737.460144,328.181946 736.212952,329.159515 738.427673,332.298157 
M737.731689,248.143204 
	C736.212402,250.836670 737.451904,251.813385 740.077271,251.815292 
	C757.176392,251.827667 774.275879,251.862000 791.373779,251.718979 
	C792.437317,251.710098 793.488770,250.257843 794.545837,249.477097 
	C793.431702,248.772659 792.318176,247.456421 791.203247,247.455246 
	C773.618042,247.436630 756.032654,247.587097 737.731689,248.143204 
M791.890259,380.304626 
	C792.618042,379.655731 793.345825,379.006836 794.073547,378.357941 
	C792.846802,377.855225 791.622742,376.922516 790.392944,376.914978 
	C774.774475,376.818848 759.155273,376.854706 743.536194,376.860291 
	C742.040894,376.860840 740.511292,376.701721 739.065063,376.974396 
	C738.358154,377.107697 737.806458,378.064056 737.184509,378.647888 
	C737.841309,379.197723 738.424255,380.039062 739.172302,380.228333 
	C740.267395,380.505524 741.480713,380.323639 742.643677,380.323486 
	C758.761230,380.321472 774.878723,380.317047 791.890259,380.304626 
M832.567810,283.330109 
	C833.700867,280.021210 831.405640,280.179199 829.341431,280.177673 
	C815.212341,280.167084 801.082825,280.130005 786.954834,280.254913 
	C785.847229,280.264709 784.749939,281.440369 783.647827,282.074158 
	C784.751648,282.707275 785.853027,283.886230 786.959595,283.891083 
	C801.915222,283.956879 816.871643,283.859467 832.567810,283.330109 
M833.284546,376.238037 
	C825.514709,376.441284 817.741760,376.578064 809.978760,376.931274 
	C808.999023,376.975861 808.071106,378.157898 807.119202,378.813019 
	C808.047913,379.489777 808.968079,380.740662 809.906738,380.754578 
	C819.512146,380.897064 829.121582,380.897430 838.726990,380.751160 
	C839.755127,380.735504 840.765198,379.538177 841.783691,378.889099 
	C840.906799,378.133118 840.139404,377.005981 839.127625,376.707489 
	C837.579834,376.250916 835.863342,376.365875 833.284546,376.238037 
M760.462463,284.023743 
	C762.948608,284.018524 765.457458,284.204529 767.909851,283.914368 
	C768.896301,283.797668 769.759094,282.636505 770.678223,281.950745 
	C769.701904,281.330536 768.733459,280.186676 767.747986,280.171783 
	C758.634094,280.033905 749.516052,280.021851 740.402893,280.181549 
	C739.305237,280.200775 738.229248,281.456512 737.143250,282.139130 
	C738.287842,282.763489 739.417847,283.894257 740.579529,283.927795 
	C746.872742,284.109528 753.173706,284.019928 760.462463,284.023743 
M724.170654,348.859589 
	C725.394043,347.963745 726.617432,347.067932 727.840820,346.172089 
	C726.585327,345.477753 725.379761,344.328125 724.063904,344.183594 
	C721.295227,343.879486 718.444397,343.891205 715.677490,344.209747 
	C714.511597,344.343964 713.472839,345.582153 712.376282,346.318512 
	C713.533081,347.162109 714.604492,348.532288 715.864868,348.736603 
	C718.275024,349.127289 720.792725,348.854492 724.170654,348.859589 
M720.476257,332.819336 
	C721.804321,332.816956 723.272156,333.169922 724.423157,332.717316 
	C725.701172,332.214691 726.690125,330.977142 727.804993,330.059570 
	C726.689575,329.389984 725.644592,328.388489 724.441223,328.132812 
	C722.851868,327.795135 721.093628,327.798981 719.488525,328.094116 
	C717.024170,328.547180 712.592712,326.358459 712.632996,330.458588 
	C712.672485,334.470551 717.098999,332.212952 720.476257,332.819336 
M721.362671,247.254532 
	C719.213745,247.270142 717.033264,247.079437 714.931030,247.400620 
	C714.062805,247.533279 712.903625,248.675385 712.738770,249.525513 
	C712.618835,250.144623 713.875000,251.662491 714.581238,251.704224 
	C718.369080,251.928055 722.179016,251.879074 725.975464,251.751205 
	C726.573975,251.731049 727.608215,250.838379 727.620483,250.329330 
	C727.640991,249.480896 727.198181,248.098129 726.593689,247.864822 
	C725.268738,247.353516 723.720337,247.421310 721.362671,247.254532 
M727.735229,378.527344 
	C725.867371,376.368469 714.916321,375.016205 713.301392,377.002136 
	C712.787598,377.634033 713.649719,380.410339 713.794373,380.403290 
	C718.406433,380.178558 723.007629,379.731873 727.735229,378.527344 
M718.663025,364.846283 
	C720.976929,364.818848 723.318726,364.985718 725.589539,364.658966 
	C726.389038,364.543976 727.348206,363.308777 727.586670,362.412598 
	C727.716858,361.923553 726.514343,360.505127 725.873962,360.479584 
	C721.924805,360.322021 717.959839,360.354523 714.013367,360.568085 
	C713.452698,360.598389 712.666626,361.911713 712.545776,362.715576 
	C712.464417,363.256989 713.262756,364.323578 713.855774,364.491882 
	C715.093628,364.843201 716.456116,364.755188 718.663025,364.846283 
M715.365662,316.685913 
	C718.334656,316.702667 721.333923,316.970764 724.258362,316.618164 
	C725.507874,316.467468 726.601318,315.022339 727.765686,314.165436 
	C726.680908,313.479492 725.641479,312.308807 724.502502,312.202179 
	C721.559387,311.926727 718.565430,312.009552 715.606445,312.189392 
	C714.601074,312.250488 713.639404,313.029236 712.657776,313.480011 
	C713.300049,314.484009 713.942261,315.487976 715.365662,316.685913 
M715.247253,235.872101 
	C718.546875,235.877930 721.853394,236.002090 725.141663,235.811829 
	C726.037048,235.759995 726.877686,234.761200 727.743469,234.197037 
	C727.035828,233.248138 726.382019,231.535141 725.611267,231.480804 
	C722.011169,231.226929 718.291382,230.966278 714.787109,231.625839 
	C712.236084,232.106003 711.079651,234.101471 715.247253,235.872101 
M712.950500,267.070892 
	C716.843445,267.360291 720.735901,267.815796 724.629761,267.828827 
	C725.675049,267.832306 726.724915,266.488190 727.772644,265.762726 
	C726.665161,264.975159 725.587341,263.573364 724.444458,263.518127 
	C721.333862,263.367798 718.170532,263.619202 715.083740,264.082428 
	C714.157043,264.221497 713.413391,265.579895 712.950500,267.070892 
M727.419189,296.834015 
	C723.336914,296.576630 719.256226,296.210266 715.171082,296.151123 
	C714.325134,296.138855 713.462646,297.268036 712.607788,297.871124 
	C713.521790,298.592560 714.393738,299.861908 715.357422,299.935852 
	C718.660034,300.189301 722.008606,300.186646 725.307983,299.907227 
	C726.175354,299.833740 726.928284,298.408417 727.419189,296.834015 
M718.671753,280.032074 
	C716.649109,280.620209 714.626404,281.208374 712.603760,281.796509 
	C714.633484,282.546936 716.658691,283.310150 718.697998,284.033478 
	C718.990601,284.137268 719.363220,284.104675 719.679077,284.039490 
	C722.348450,283.488464 725.013184,282.915161 727.679321,282.348572 
	C725.998291,278.006592 722.257996,280.856079 718.671753,280.032074 
z"/>
<path fill="#3B5571" opacity="1.000000" stroke="none" 
	d="
M904.543335,304.635956 
	C898.044189,297.372437 888.919067,292.127380 884.770630,282.417542 
	C883.793640,280.130737 881.273071,278.503448 879.462585,276.572815 
	C878.971924,276.799652 878.481262,277.026489 877.990601,277.253357 
	C877.990601,271.627197 878.036560,266.000610 877.979980,260.375031 
	C877.892334,251.665512 877.195190,251.121704 868.710388,250.951599 
	C860.086731,250.778732 851.337585,251.086838 842.905823,249.647324 
	C838.879333,248.959915 835.076965,245.112381 831.845337,241.998535 
	C824.938660,235.343658 818.330994,228.360382 811.884155,221.254562 
	C808.939331,218.008789 806.665283,214.154510 804.062134,210.209503 
	C819.418213,209.762070 834.798950,209.670380 850.179871,209.605377 
	C857.462891,209.574585 864.746155,209.594849 872.684937,209.921722 
	C873.360291,210.896545 873.463135,211.551575 873.387390,212.185272 
	C871.705811,226.247986 878.519043,238.378159 891.715393,243.329010 
	C895.807007,244.864059 900.368408,245.146896 904.714722,246.003036 
	C904.713013,265.397980 904.711365,284.792938 904.543335,304.635956 
z"/>
<path fill="#09C6E3" opacity="1.000000" stroke="none" 
	d="
M905.098389,245.881149 
	C900.368408,245.146896 895.807007,244.864059 891.715393,243.329010 
	C878.519043,238.378159 871.705811,226.247986 873.387390,212.185272 
	C873.463135,211.551575 873.360291,210.896545 873.150513,209.923615 
	C872.960449,209.595795 872.951050,209.312164 872.956787,209.170731 
	C873.734741,207.849457 874.697815,206.752213 875.249512,205.477051 
	C880.874512,192.475998 894.399170,184.836700 907.463989,187.354782 
	C921.764526,190.111038 931.700684,201.801331 931.879456,216.080536 
	C932.054749,230.083466 922.563477,241.778351 908.387207,245.033783 
	C907.414612,245.257156 906.450256,245.516602 905.098389,245.881149 
M903.558655,224.076645 
	C908.151978,219.724030 912.757874,215.384583 917.332275,211.012222 
	C919.140930,209.283386 921.362854,207.604706 918.913025,204.770599 
	C916.252747,201.692963 914.548767,204.247849 912.791931,205.877869 
	C907.716248,210.587158 902.697266,215.357498 896.951965,220.766739 
	C894.963196,218.385818 893.577759,216.209503 891.675476,214.673203 
	C890.756653,213.931168 888.073914,213.797852 887.590393,214.441254 
	C886.748596,215.561508 886.322510,217.844727 886.929443,219.013229 
	C887.966492,221.009354 889.904846,222.551132 891.520142,224.230423 
	C897.191406,230.126617 897.200378,230.117996 903.558655,224.076645 
z"/>
<path fill="#3B5571" opacity="1.000000" stroke="none" 
	d="
M903.285889,402.036743 
	C903.331421,401.645996 903.662598,401.320770 904.231506,400.960876 
	C904.551453,401.079285 904.633728,401.232330 904.720093,401.645874 
	C904.339966,401.971619 903.955750,402.036926 903.285889,402.036743 
z"/>
<path fill="#508098" opacity="1.000000" stroke="none" 
	d="
M689.500732,250.064270 
	C689.965088,265.990479 689.970337,282.007385 689.497437,298.511261 
	C680.486450,299.057434 671.953674,299.116638 663.274231,299.105835 
	C663.127625,299.035828 662.845337,298.875092 662.845337,298.875092 
	C662.933167,284.386505 663.141846,269.897003 663.028259,255.410004 
	C662.997986,251.550583 664.003967,250.090317 668.067444,250.243729 
	C675.047791,250.507278 682.049133,250.214310 689.500732,250.064270 
z"/>
<path fill="#29B9D1" opacity="1.000000" stroke="none" 
	d="
M638.121643,333.046173 
	C638.091064,332.846191 638.060547,332.646179 637.969482,332.148010 
	C637.954285,322.389557 638.138916,312.926788 637.972351,303.470215 
	C637.910767,299.975983 639.025513,298.801910 642.513306,298.917053 
	C648.979248,299.130493 655.458069,298.952881 662.388428,298.906616 
	C662.845337,298.875092 663.127625,299.035828 663.159424,299.547302 
	C663.098022,311.035065 663.004761,322.011383 662.502869,332.928406 
	C654.103333,332.928162 646.112488,332.987152 638.121643,333.046173 
z"/>
<path fill="#21C1DD" opacity="1.000000" stroke="none" 
	d="
M842.390015,587.753296 
	C838.041199,587.457336 834.109192,587.244629 830.181641,586.967957 
	C828.379944,586.841125 826.587097,586.588867 824.364502,585.862793 
	C819.536072,580.298340 815.377625,575.022400 810.678589,570.282349 
	C801.579102,561.103394 792.051270,552.349670 782.927124,543.194336 
	C769.717957,529.939941 756.756165,516.439514 743.601807,503.130035 
	C732.189270,491.582977 720.241638,480.532745 709.319214,468.544342 
	C701.846741,460.342529 693.882629,455.188995 682.450562,456.938782 
	C681.071655,457.149841 679.572144,456.573242 678.128540,456.361694 
	C678.113098,455.628632 678.097656,454.895538 678.082153,454.162476 
	C680.769958,453.773773 683.448364,453.290131 686.148254,453.024353 
	C688.615295,452.781403 690.757446,452.254730 689.400513,449.145813 
	C685.883850,441.088409 674.675354,435.558929 667.153931,436.654938 
	C670.105835,429.863281 673.056580,423.433289 676.413513,417.001953 
	C678.528442,416.556976 680.219604,415.878418 681.951782,415.749451 
	C683.173340,415.658447 684.870300,415.913605 685.626221,416.707825 
	C688.184204,419.395264 690.225464,422.579315 692.815552,425.230347 
	C697.936768,430.471924 703.393066,434.102753 711.683838,433.235168 
	C721.359924,432.222595 731.222961,432.997162 741.473267,432.994965 
	C753.965332,432.987579 765.989136,432.981537 778.480652,432.983948 
	C788.964783,433.048126 798.981079,433.103851 808.997437,433.159607 
	C808.995850,433.880249 808.994263,434.600891 808.992676,435.683044 
	C799.200256,436.178223 789.407776,436.311859 778.856201,436.708649 
	C769.406738,436.660278 760.716553,436.348755 751.555115,436.024261 
	C737.125671,436.342072 723.166382,436.636597 709.210938,437.059906 
	C707.820374,437.102081 706.453613,437.928436 704.621582,438.543274 
	C708.848572,443.342834 712.405884,447.488403 716.111511,451.496857 
	C716.823730,452.267273 718.085999,452.817322 719.149597,452.924957 
	C723.761841,453.391663 728.391357,453.881958 733.020508,453.948883 
	C743.017517,454.093323 753.018188,453.982971 763.484985,453.979675 
	C772.327454,453.952576 780.702393,453.922668 789.077332,453.892731 
	C800.646423,453.892731 812.215576,453.892731 823.784668,453.892731 
	C823.822815,454.806580 823.861023,455.720428 823.899170,456.634277 
	C818.661926,457.436157 813.265564,456.827454 807.497803,457.058838 
	C799.669739,457.055511 792.305908,457.034821 784.004700,457.008240 
	C773.051453,457.009277 763.035461,457.016174 752.548950,457.014404 
	C745.247070,457.006317 738.414612,456.944366 731.585632,457.068787 
	C730.443909,457.089569 728.606201,457.686890 728.361755,458.433990 
	C728.051270,459.383026 728.848633,460.879272 729.517761,461.913513 
	C730.226135,463.008575 731.341919,463.841034 732.284363,464.783600 
	C766.214905,498.715149 800.163086,532.629089 834.057007,566.597168 
	C838.734314,571.284668 843.241394,576.153015 847.628540,581.113403 
	C849.432800,583.153320 853.887878,582.905701 853.033630,587.254333 
	C849.625305,587.439697 846.216980,587.625000 842.390015,587.753296 
z"/>
<path fill="#71D7E8" opacity="1.000000" stroke="none" 
	d="
M872.047302,453.762695 
	C862.502380,453.540314 852.958008,453.289764 843.412170,453.118744 
	C841.451111,453.083618 839.484741,453.345581 837.161865,453.702972 
	C830.041809,455.956268 828.244263,449.325653 824.561035,446.412689 
	C821.903687,444.311005 820.823303,440.215302 819.060608,436.657166 
	C832.845825,436.340790 846.609985,436.376221 860.690491,437.059540 
	C862.134521,439.770477 863.078247,441.964264 864.430481,443.867798 
	C866.839172,447.258636 869.494873,450.473999 872.047302,453.762695 
z"/>
<path fill="#40CAE2" opacity="1.000000" stroke="none" 
	d="
M789.049133,453.530518 
	C780.702393,453.922668 772.327454,453.952576 763.440125,453.631012 
	C760.383850,450.144440 758.317444,446.352997 755.162415,444.057953 
	C751.975708,441.739899 750.865173,439.588776 752.026306,436.037262 
	C760.716553,436.348755 769.406738,436.660278 778.539917,436.977631 
	C778.534790,440.436401 780.015381,442.718353 782.666016,445.002655 
	C785.227661,447.210144 786.937134,450.406372 789.049133,453.530518 
z"/>
<path fill="#1E9DB6" opacity="1.000000" stroke="none" 
	d="
M602.097046,587.032043 
	C601.628113,587.058960 601.159119,587.085876 600.338623,587.128662 
	C599.911926,583.157349 599.766418,579.170166 599.772644,575.183167 
	C599.839722,532.097168 599.930603,489.011230 600.070190,445.455475 
	C604.512390,441.005096 608.899475,437.024506 613.899658,433.244080 
	C615.373230,438.807892 616.312256,444.160248 617.080505,449.537048 
	C620.098145,470.656403 622.997314,491.793060 626.116638,512.897278 
	C626.576477,516.008240 627.984924,518.979004 628.806274,522.330688 
	C625.793091,529.377136 623.051270,536.163452 620.034180,542.825073 
	C615.535217,552.758362 610.618164,562.507874 606.331604,572.529175 
	C604.365295,577.126160 603.475220,582.183472 602.097046,587.032043 
z"/>
<path fill="#0FB0CB" opacity="1.000000" stroke="none" 
	d="
M638.089844,333.509796 
	C646.112488,332.987152 654.103333,332.928162 662.555542,333.396057 
	C662.955627,362.653900 662.894409,391.384888 662.613525,420.326599 
	C662.541382,421.656830 662.688965,422.776337 662.893188,424.335571 
	C662.917786,426.546082 662.885742,428.316895 662.600952,430.382996 
	C662.232666,432.319885 662.002380,433.962982 662.024475,435.602692 
	C662.078125,439.571930 658.323914,440.950684 656.189575,441.283783 
	C650.244080,442.211609 644.095459,441.838257 638.023987,441.513184 
	C638.005127,436.030090 637.989319,431.012482 638.246826,425.748108 
	C638.333984,423.668823 638.147827,421.836395 637.966919,419.623383 
	C637.942261,418.481354 637.912231,417.719879 637.882263,416.958405 
	C637.940918,389.296753 637.999512,361.635071 638.089844,333.509796 
z"/>
<path fill="#41B5CB" opacity="1.000000" stroke="none" 
	d="
M637.973511,425.994904 
	C637.989319,431.012482 638.005127,436.030090 638.011841,441.984131 
	C638.344849,460.956848 638.686951,478.993073 639.016357,497.410706 
	C636.983582,503.814697 634.963501,509.837280 632.610046,515.952515 
	C631.169189,518.035034 630.061829,520.024841 628.954468,522.014648 
	C627.984924,518.979004 626.576477,516.008240 626.116638,512.897278 
	C622.997314,491.793060 620.098145,470.656403 617.080505,449.537048 
	C616.312256,444.160248 615.373230,438.807892 614.239258,433.183777 
	C616.686157,430.403412 619.136536,427.474884 622.189270,425.458069 
	C626.957031,422.308228 632.132751,419.776001 637.508911,416.970245 
	C637.912231,417.719879 637.942261,418.481354 637.703979,419.876282 
	C637.615051,422.338135 637.794312,424.166504 637.973511,425.994904 
z"/>
<path fill="#40CAE2" opacity="1.000000" stroke="none" 
	d="
M753.019531,457.023071 
	C763.035461,457.016174 773.051453,457.009277 783.536499,457.014069 
	C781.393127,460.097900 782.561401,462.202118 785.200378,464.826813 
	C820.411011,499.847443 855.496155,534.994202 890.610168,570.112000 
	C893.640808,573.143005 896.881042,576.007141 899.569824,579.317566 
	C900.730957,580.747192 900.735779,583.115906 901.525269,586.008545 
	C892.948425,586.008545 885.395691,586.008545 877.381042,585.649536 
	C873.996155,582.441101 871.089783,579.574280 868.146973,576.745361 
	C860.884338,569.763733 853.527283,562.878296 846.350891,555.809265 
	C836.350403,545.958313 826.480103,535.975281 816.553833,526.048950 
	C797.267395,506.762451 777.868652,487.585693 758.818176,468.068939 
	C756.034668,465.217285 754.911133,460.745331 753.019531,457.023071 
z"/>
<path fill="#2FC5DF" opacity="1.000000" stroke="none" 
	d="
M752.548950,457.014435 
	C754.911133,460.745331 756.034668,465.217285 758.818176,468.068939 
	C777.868652,487.585693 797.267395,506.762451 816.553833,526.048950 
	C826.480103,535.975281 836.350403,545.958313 846.350891,555.809265 
	C853.527283,562.878296 860.884338,569.763733 868.146973,576.745361 
	C871.089783,579.574280 873.996155,582.441101 876.968140,585.648987 
	C873.755859,586.322021 870.494690,586.636658 867.094666,587.295654 
	C862.564087,587.613281 858.172363,587.586609 853.407104,587.407104 
	C853.887878,582.905701 849.432800,583.153320 847.628540,581.113403 
	C843.241394,576.153015 838.734314,571.284668 834.057007,566.597168 
	C800.163086,532.629089 766.214905,498.715149 732.284363,464.783600 
	C731.341919,463.841034 730.226135,463.008575 729.517761,461.913513 
	C728.848633,460.879272 728.051270,459.383026 728.361755,458.433990 
	C728.606201,457.686890 730.443909,457.089569 731.585632,457.068787 
	C738.414612,456.944366 745.247070,457.006317 752.548950,457.014435 
z"/>
<path fill="#82DCEB" opacity="1.000000" stroke="none" 
	d="
M819.013184,402.421844 
	C834.042664,402.340912 849.072144,402.259949 864.556946,402.296021 
	C865.827148,404.030182 866.282959,406.021362 867.514893,407.204071 
	C875.815369,415.172791 884.286377,422.963715 892.667725,430.848877 
	C892.960327,431.124084 892.890930,431.783844 892.999878,432.623047 
	C877.322021,432.990845 861.634521,433.000000 845.472046,432.623962 
	C844.549194,431.217255 844.350708,429.944763 843.614624,429.213226 
	C836.762329,422.402649 829.725464,415.775330 822.963440,408.877899 
	C821.242310,407.122314 820.308655,404.594727 819.013184,402.421844 
z"/>
<path fill="#82DCEB" opacity="1.000000" stroke="none" 
	d="
M872.508423,453.824738 
	C869.494873,450.473999 866.839172,447.258636 864.430481,443.867798 
	C863.078247,441.964264 862.134521,439.770477 861.013916,437.318420 
	C872.698730,436.912323 884.376465,436.895233 896.520325,436.914459 
	C896.689087,440.144409 897.681213,442.326263 900.438416,444.529663 
	C902.950195,446.536926 904.211365,450.109039 906.055359,453.333527 
	C895.047852,453.746063 884.008728,453.816406 872.508423,453.824738 
z"/>
<path fill="#5ED2E6" opacity="1.000000" stroke="none" 
	d="
M809.450500,433.116608 
	C798.981079,433.103851 788.964783,433.048126 778.472290,432.621765 
	C772.861389,426.596039 767.800049,420.871765 762.566650,415.309357 
	C758.870239,411.380554 754.529358,407.978119 753.012573,402.448120 
	C760.700867,402.325775 768.389099,402.203400 776.986206,402.119385 
	C780.597778,402.269318 783.300476,402.380920 786.128540,402.809296 
	C788.613098,404.398804 791.363708,405.252075 793.259766,407.021240 
	C799.465210,412.811310 805.381958,418.912476 811.363281,424.940063 
	C813.968933,427.565887 816.461914,430.303436 819.006104,432.990204 
	C815.971924,433.018005 812.937744,433.045807 809.450500,433.116608 
z"/>
<path fill="#71D7E8" opacity="1.000000" stroke="none" 
	d="
M819.473999,433.002930 
	C816.461914,430.303436 813.968933,427.565887 811.363281,424.940063 
	C805.381958,418.912476 799.465210,412.811310 793.259766,407.021240 
	C791.363708,405.252075 788.613098,404.398804 786.590332,402.722595 
	C794.282715,402.207184 801.638733,402.095245 808.994690,401.983307 
	C809.452209,402.060699 809.909668,402.138062 810.801331,402.641541 
	C812.818359,402.859253 814.401184,402.650818 815.984070,402.442352 
	C816.746765,402.359375 817.509460,402.276398 818.642700,402.307648 
	C820.308655,404.594727 821.242310,407.122314 822.963440,408.877899 
	C829.725464,415.775330 836.762329,422.402649 843.614624,429.213226 
	C844.350708,429.944763 844.549194,431.217255 845.004639,432.599365 
	C836.655518,432.978546 828.298706,432.997131 819.473999,433.002930 
z"/>
<path fill="#04B8D8" opacity="1.000000" stroke="none" 
	d="
M793.975708,586.884399 
	C783.618103,586.912170 773.260559,586.939941 762.126404,586.667908 
	C756.423462,586.151245 751.497131,585.934326 748.371277,585.796692 
	C744.086792,580.772278 740.972046,576.689209 737.413940,573.038086 
	C730.328247,565.767090 722.974243,558.758362 715.780823,551.591309 
	C712.297546,548.120728 709.008301,544.453247 705.481873,541.028687 
	C702.068359,537.713684 698.283081,534.770264 694.980225,531.355042 
	C688.261902,524.408203 681.871399,517.143860 675.137756,510.212463 
	C667.024841,501.861267 658.712158,493.703583 650.439148,485.509399 
	C649.440430,484.520172 648.150208,483.825226 647.035156,482.625061 
	C650.415466,474.269104 653.731262,466.271484 657.145935,458.316315 
	C657.401733,457.720428 658.365417,457.428375 659.417358,456.998352 
	C667.854614,457.216797 673.263062,462.525452 678.947144,467.082825 
	C681.987366,469.520508 684.431396,472.696808 687.179260,475.505737 
	C689.590637,477.970734 692.059204,480.379608 694.486572,482.829132 
	C697.144653,485.511505 699.728149,488.270172 702.442810,490.893494 
	C709.893860,498.093811 717.404846,505.231995 724.862854,512.425171 
	C725.445374,512.987000 725.714050,513.866577 726.275696,514.459106 
	C728.985901,517.318359 731.729675,520.146362 734.493835,522.953613 
	C737.377563,525.882202 740.334229,528.739685 743.188477,531.696228 
	C744.785767,533.350647 746.115784,535.274109 747.779480,536.851440 
	C756.134033,544.773071 764.559265,552.620178 772.957703,560.495544 
	C773.078186,560.608582 773.164734,560.757141 773.281860,560.874451 
	C777.210632,564.809265 781.355286,568.554749 785.011841,572.728027 
	C788.704407,576.942383 795.580566,579.282532 793.975708,586.884399 
z"/>
<path fill="#01AFCE" opacity="1.000000" stroke="none" 
	d="
M646.995117,482.993896 
	C648.150208,483.825226 649.440430,484.520172 650.439148,485.509399 
	C658.712158,493.703583 667.024841,501.861267 675.137756,510.212463 
	C681.871399,517.143860 688.261902,524.408203 694.980225,531.355042 
	C698.283081,534.770264 702.068359,537.713684 705.481873,541.028687 
	C709.008301,544.453247 712.297546,548.120728 715.780823,551.591309 
	C722.974243,558.758362 730.328247,565.767090 737.413940,573.038086 
	C740.972046,576.689209 744.086792,580.772278 748.371277,585.796692 
	C751.497131,585.934326 756.423462,586.151245 761.656311,586.637207 
	C756.611755,586.931580 751.260742,586.956787 745.133545,586.679932 
	C725.899109,586.255188 707.440918,586.132507 688.736450,586.011230 
	C688.490112,586.012634 687.997559,586.010681 688.043396,585.649170 
	C689.538269,584.161926 690.987305,583.036255 692.740784,581.674011 
	C689.219788,579.862671 686.153992,579.087646 684.248474,577.163513 
	C676.870544,569.713135 670.003296,561.759094 662.680420,554.251587 
	C653.544739,544.885559 643.359741,536.616577 635.702637,525.708557 
	C633.276489,522.252380 631.921082,519.717468 632.943481,515.859863 
	C634.963501,509.837280 636.983582,503.814697 639.360474,497.338806 
	C642.143188,492.255005 644.569153,487.624451 646.995117,482.993896 
z"/>
<path fill="#13BDDC" opacity="1.000000" stroke="none" 
	d="
M794.443604,586.925598 
	C795.580566,579.282532 788.704407,576.942383 785.011841,572.728027 
	C781.355286,568.554749 777.210632,564.809265 773.281860,560.874451 
	C773.164734,560.757141 773.078186,560.608582 772.957703,560.495544 
	C764.559265,552.620178 756.134033,544.773071 747.779480,536.851440 
	C746.115784,535.274109 744.785767,533.350647 743.188477,531.696228 
	C740.334229,528.739685 737.377563,525.882202 734.493835,522.953613 
	C731.729675,520.146362 728.985901,517.318359 726.275696,514.459106 
	C725.714050,513.866577 725.445374,512.987000 724.862854,512.425171 
	C717.404846,505.231995 709.893860,498.093811 702.442810,490.893494 
	C699.728149,488.270172 697.144653,485.511505 694.486572,482.829132 
	C692.059204,480.379608 689.590637,477.970734 687.179260,475.505737 
	C684.431396,472.696808 681.987366,469.520508 678.947144,467.082825 
	C673.263062,462.525452 667.854614,457.216797 659.455322,456.641602 
	C659.009338,451.467804 660.047913,447.079803 663.837219,443.716309 
	C664.009155,443.563690 663.889526,443.082642 664.053223,442.463196 
	C665.184753,440.453369 666.168701,438.734955 667.152710,437.016571 
	C674.675354,435.558929 685.883850,441.088409 689.400513,449.145813 
	C690.757446,452.254730 688.615295,452.781403 686.148254,453.024353 
	C683.448364,453.290131 680.769958,453.773773 678.082153,454.162476 
	C678.097656,454.895538 678.113098,455.628632 678.128540,456.361694 
	C679.572144,456.573242 681.071655,457.149841 682.450562,456.938782 
	C693.882629,455.188995 701.846741,460.342529 709.319214,468.544342 
	C720.241638,480.532745 732.189270,491.582977 743.601807,503.130035 
	C756.756165,516.439514 769.717957,529.939941 782.927124,543.194336 
	C792.051270,552.349670 801.579102,561.103394 810.678589,570.282349 
	C815.377625,575.022400 819.536072,580.298340 823.987122,585.691833 
	C821.345337,586.060730 818.655212,586.069946 815.128052,586.052124 
	C812.865479,586.328064 811.439880,586.631042 810.014343,586.934021 
	C804.980042,586.944946 799.945740,586.955872 794.443604,586.925598 
z"/>
<path fill="#01A6C3" opacity="1.000000" stroke="none" 
	d="
M632.609985,515.952515 
	C631.921082,519.717468 633.276489,522.252380 635.702637,525.708557 
	C643.359741,536.616577 653.544739,544.885559 662.680420,554.251587 
	C670.003296,561.759094 676.870544,569.713135 684.248474,577.163513 
	C686.153992,579.087646 689.219788,579.862671 692.740784,581.674011 
	C690.987305,583.036255 689.538269,584.161926 687.575073,585.652344 
	C684.901794,586.017883 682.737610,585.924072 680.584534,586.038513 
	C675.364563,586.315796 670.149719,586.690002 664.932861,587.025269 
	C660.286987,587.034790 655.641052,587.044250 650.221375,586.753174 
	C643.270325,586.648438 637.093140,586.844238 630.915894,587.039978 
	C626.612610,587.047974 622.309265,587.055908 617.269775,586.777039 
	C614.326416,586.675598 612.119141,586.860901 609.911926,587.046204 
	C607.592773,587.051270 605.273560,587.056396 602.525757,587.046753 
	C603.475220,582.183472 604.365295,577.126160 606.331604,572.529175 
	C610.618164,562.507874 615.535217,552.758362 620.034180,542.825073 
	C623.051270,536.163452 625.793091,529.377136 628.806274,522.330688 
	C630.061829,520.024841 631.169189,518.035034 632.609985,515.952515 
z"/>
<path fill="#01A6C3" opacity="1.000000" stroke="none" 
	d="
M688.982727,586.009766 
	C707.440918,586.132507 725.899109,586.255188 744.665161,586.648682 
	C726.641235,586.954834 708.309387,586.990295 689.491760,586.765442 
	C689.005920,586.505188 688.982727,586.009766 688.982727,586.009766 
z"/>
<path fill="#1E9DB6" opacity="1.000000" stroke="none" 
	d="
M688.736450,586.011230 
	C688.982727,586.009766 689.005920,586.505188 689.026123,586.752380 
	C681.325989,587.023193 673.605530,587.046875 665.408997,587.047852 
	C670.149719,586.690002 675.364563,586.315796 680.584534,586.038513 
	C682.737610,585.924072 684.901794,586.017883 687.529236,586.013916 
	C687.997559,586.010681 688.490112,586.012634 688.736450,586.011230 
z"/>
<path fill="#1E9DB6" opacity="1.000000" stroke="none" 
	d="
M631.392700,587.063721 
	C637.093140,586.844238 643.270325,586.648438 649.760315,586.740662 
	C644.005249,587.048279 637.937378,587.067871 631.392700,587.063721 
z"/>
<path fill="#1E9DB6" opacity="1.000000" stroke="none" 
	d="
M610.361328,587.069885 
	C612.119141,586.860901 614.326416,586.675598 616.811523,586.764954 
	C614.996521,587.057617 612.903625,587.075623 610.361328,587.069885 
z"/>
<path fill="#21C1DD" opacity="1.000000" stroke="none" 
	d="
M810.398987,586.957397 
	C811.439880,586.631042 812.865479,586.328064 814.682251,586.051392 
	C813.643494,586.378723 812.213562,586.679688 810.398987,586.957397 
z"/>
<path fill="#1C6180" opacity="1.000000" stroke="none" 
	d="
M667.153931,436.654938 
	C666.168701,438.734955 665.184753,440.453369 663.767395,442.201111 
	C663.173950,438.182861 663.013855,434.135284 662.853760,430.087708 
	C662.885742,428.316895 662.917786,426.546082 662.944458,423.960327 
	C662.903748,422.135559 662.868469,421.125702 662.833130,420.115845 
	C662.894409,391.384888 662.955627,362.653900 662.964233,333.455322 
	C663.004761,322.011383 663.098022,311.035065 663.306030,299.617310 
	C671.953674,299.116638 680.486450,299.057434 689.481628,298.976868 
	C689.961853,331.224884 689.937744,363.494446 690.103699,395.763062 
	C690.113464,397.663849 691.654968,399.556763 692.303101,401.812988 
	C683.030029,402.009949 681.437195,403.056427 678.085571,411.467712 
	C677.356140,413.298279 676.698181,415.157349 676.007324,417.003265 
	C673.056580,423.433289 670.105835,429.863281 667.153931,436.654938 
z"/>
<path fill="#4BCBE1" opacity="1.000000" stroke="none" 
	d="
M752.561951,402.325928 
	C754.529358,407.978119 758.870239,411.380554 762.566650,415.309357 
	C767.800049,420.871765 772.861389,426.596039 778.004517,432.613342 
	C765.989136,432.981537 753.965332,432.987579 741.433655,432.649841 
	C737.610413,429.187531 734.326172,426.035156 730.972229,422.958710 
	C726.405212,418.769653 721.761230,414.664307 717.207092,410.461548 
	C716.256165,409.584045 715.126831,408.552460 714.817139,407.394623 
	C713.986267,404.288788 711.947083,404.021484 709.207458,403.916565 
	C705.763794,403.784607 702.345398,402.990234 698.916138,402.481750 
	C710.983582,402.397003 723.051086,402.312256 735.669922,402.637512 
	C737.472534,402.853149 738.723755,402.658813 739.974915,402.464478 
	C744.020386,402.377563 748.065857,402.290619 752.561951,402.325928 
z"/>
<path fill="#2FC5DF" opacity="1.000000" stroke="none" 
	d="
M698.948364,402.369568 
	C702.345398,402.990234 705.763794,403.784607 709.207458,403.916565 
	C711.947083,404.021484 713.986267,404.288788 714.817139,407.394623 
	C715.126831,408.552460 716.256165,409.584045 717.207092,410.461548 
	C721.761230,414.664307 726.405212,418.769653 730.972229,422.958710 
	C734.326172,426.035156 737.610413,429.187531 740.965332,432.651184 
	C731.222961,432.997162 721.359924,432.222595 711.683838,433.235168 
	C703.393066,434.102753 697.936768,430.471924 692.815552,425.230347 
	C690.225464,422.579315 688.184204,419.395264 685.626221,416.707825 
	C684.870300,415.913605 683.173340,415.658447 681.951782,415.749451 
	C680.219604,415.878418 678.528442,416.556976 676.413513,417.001953 
	C676.698181,415.157349 677.356140,413.298279 678.085571,411.467712 
	C681.437195,403.056427 683.030029,402.009949 692.552979,402.098419 
	C693.741699,402.047272 694.500000,402.070343 696.002930,402.135864 
	C697.490723,402.126892 698.233887,402.075470 698.977051,402.024048 
	C698.977051,402.024048 698.980530,402.257385 698.948364,402.369568 
z"/>
<path fill="#3976D5" opacity="1.000000" stroke="none" 
	d="
M820.000000,316.130341 
	C794.200928,316.130005 768.901917,316.130005 743.602844,316.127777 
	C742.271484,316.127655 740.884949,316.333282 739.627014,316.024323 
	C738.704346,315.797699 737.950195,314.884796 737.120972,314.277771 
	C738.012268,313.556885 738.819275,312.661377 739.824341,312.176086 
	C740.502014,311.848907 741.459167,312.094421 742.291321,312.094330 
	C787.063965,312.089905 831.836609,312.085999 876.609253,312.086884 
	C877.606506,312.086914 878.754089,311.845459 879.560181,312.253235 
	C880.425842,312.691132 880.970642,313.763275 881.655457,314.558685 
	C880.910095,315.073700 880.225952,315.844574 879.404419,316.040894 
	C878.300110,316.304810 877.089783,316.134705 875.924988,316.134705 
	C857.450012,316.134705 838.974976,316.132172 820.000000,316.130341 
z"/>
<path fill="#3976D5" opacity="1.000000" stroke="none" 
	d="
M821.000000,300.044586 
	C795.027161,300.045227 769.554382,300.045959 744.081543,300.046082 
	C742.916138,300.046082 741.682739,300.280396 740.603210,299.974518 
	C739.370667,299.625305 738.275146,298.792908 737.120056,298.170471 
	C738.355530,297.461395 739.565247,296.699951 740.841431,296.073914 
	C741.244446,295.876190 741.825317,296.039795 742.324768,296.039764 
	C774.790100,296.037842 807.255493,296.036072 839.720825,296.034485 
	C840.386780,296.034454 841.141357,295.836212 841.699585,296.082245 
	C842.759827,296.549469 843.707642,297.271851 844.702148,297.888275 
	C843.627625,298.604004 842.575745,299.895050 841.474792,299.938324 
	C835.989014,300.153961 830.490417,300.041626 824.996277,300.044434 
	C823.830872,300.045013 822.665405,300.044556 821.000000,300.044586 
z"/>
<path fill="#3976D5" opacity="1.000000" stroke="none" 
	d="
M761.000000,267.958984 
	C754.344849,267.956421 748.184937,268.086426 742.037781,267.863800 
	C740.380676,267.803741 738.762451,266.673370 737.126343,266.034271 
	C738.711243,265.339874 740.291260,264.054932 741.881836,264.041718 
	C759.347961,263.896667 776.815674,263.949432 794.282959,263.949188 
	C809.254883,263.948975 824.227478,263.887939 839.198059,264.030029 
	C841.020020,264.047333 842.831604,265.159332 844.648010,265.764038 
	C842.717041,266.504364 840.789368,267.878998 838.854614,267.889099 
	C813.070312,268.023956 787.285034,267.967712 761.000000,267.958984 
z"/>
<path fill="#0FB0CB" opacity="1.000000" stroke="none" 
	d="
M749.019043,344.743591 
	C778.317932,344.741638 807.120728,344.739319 835.923462,344.738922 
	C837.088501,344.738922 838.295471,344.572998 839.404724,344.826599 
	C840.235352,345.016541 840.939941,345.757599 841.700684,346.253235 
	C840.931763,346.895386 840.253662,347.783630 839.368286,348.110260 
	C838.486389,348.435638 837.396545,348.205231 836.397888,348.205322 
	C805.264282,348.208771 774.130615,348.210938 742.997009,348.211029 
	C741.831787,348.211029 740.625854,348.367828 739.514893,348.115997 
	C738.693726,347.929871 737.996399,347.197205 737.243896,346.708038 
	C738.006958,346.068848 738.731506,344.941681 739.540039,344.877808 
	C742.519287,344.642456 745.526367,344.759247 749.019043,344.743591 
z"/>
<path fill="#0FB0CB" opacity="1.000000" stroke="none" 
	d="
M738.072021,332.076416 
	C736.212952,329.159515 737.460144,328.181946 740.076416,328.179565 
	C757.171692,328.163971 774.267334,328.127899 791.361450,328.268402 
	C792.423767,328.277130 793.474243,329.726837 794.530212,330.506104 
	C793.410645,331.214966 792.291687,332.539276 791.171326,332.540527 
	C773.590271,332.560364 756.008911,332.409637 738.072021,332.076416 
z"/>
<path fill="#0FB0CB" opacity="1.000000" stroke="none" 
	d="
M738.089478,247.920990 
	C756.032654,247.587097 773.618042,247.436630 791.203247,247.455246 
	C792.318176,247.456421 793.431702,248.772659 794.545837,249.477112 
	C793.488770,250.257843 792.437317,251.710098 791.373779,251.718979 
	C774.275879,251.862000 757.176392,251.827667 740.077271,251.815292 
	C737.451904,251.813385 736.212402,250.836670 738.089478,247.920990 
z"/>
<path fill="#3976D5" opacity="1.000000" stroke="none" 
	d="
M738.999512,231.772873 
	C752.682922,231.790039 766.366394,231.807205 780.774597,231.841034 
	C781.672485,231.821518 781.845520,231.785370 782.018494,231.749237 
	C785.041138,231.771545 788.063721,231.793869 791.785217,231.844086 
	C792.653687,231.850082 792.823364,231.828171 792.993042,231.806244 
	C795.056152,234.373291 794.326416,235.846085 791.152832,235.857742 
	C774.047180,235.920624 756.941223,235.894775 739.835327,235.898254 
	C737.342346,235.898758 736.514709,234.752426 737.979431,232.158463 
	C738.676086,231.864746 738.837830,231.818802 738.999512,231.772873 
z"/>
<path fill="#E7FCFF" opacity="1.000000" stroke="none" 
	d="
M791.443237,380.308929 
	C774.878723,380.317047 758.761230,380.321472 742.643677,380.323486 
	C741.480713,380.323639 740.267395,380.505524 739.172302,380.228333 
	C738.424255,380.039062 737.841309,379.197723 737.184509,378.647888 
	C737.806458,378.064056 738.358154,377.107697 739.065063,376.974396 
	C740.511292,376.701721 742.040894,376.860840 743.536194,376.860291 
	C759.155273,376.854706 774.774475,376.818848 790.392944,376.914978 
	C791.622742,376.922516 792.846802,377.855225 794.073547,378.357941 
	C793.345825,379.006836 792.618042,379.655731 791.443237,380.308929 
z"/>
<path fill="#C2F3FB" opacity="1.000000" stroke="none" 
	d="
M832.197815,283.566284 
	C816.871643,283.859467 801.915222,283.956879 786.959595,283.891083 
	C785.853027,283.886230 784.751648,282.707275 783.647827,282.074158 
	C784.749939,281.440369 785.847229,280.264709 786.954834,280.254913 
	C801.082825,280.130005 815.212341,280.167084 829.341431,280.177673 
	C831.405640,280.179199 833.700867,280.021210 832.197815,283.566284 
z"/>
<path fill="#13BDDC" opacity="1.000000" stroke="none" 
	d="
M738.002747,364.308167 
	C736.394714,362.052338 737.162476,360.921570 739.746094,360.917603 
	C756.991516,360.891144 774.237244,360.873810 791.481262,361.028168 
	C792.177368,361.034393 792.857727,362.792908 792.811890,363.925446 
	C774.053162,364.179993 756.027954,364.244080 738.002747,364.308167 
z"/>
<path fill="#3976D5" opacity="1.000000" stroke="none" 
	d="
M833.751526,376.238159 
	C835.863342,376.365875 837.579834,376.250916 839.127625,376.707489 
	C840.139404,377.005981 840.906799,378.133118 841.783691,378.889099 
	C840.765198,379.538177 839.755127,380.735504 838.726990,380.751160 
	C829.121582,380.897430 819.512146,380.897064 809.906738,380.754578 
	C808.968079,380.740662 808.047913,379.489777 807.119202,378.812988 
	C808.071106,378.157898 808.999023,376.975861 809.978760,376.931274 
	C817.741760,376.578064 825.514709,376.441284 833.751526,376.238159 
z"/>
<path fill="#0FB0CB" opacity="1.000000" stroke="none" 
	d="
M759.967285,284.023743 
	C753.173706,284.019928 746.872742,284.109528 740.579529,283.927795 
	C739.417847,283.894257 738.287842,282.763489 737.143250,282.139130 
	C738.229248,281.456512 739.305237,280.200775 740.402893,280.181549 
	C749.516052,280.021851 758.634094,280.033905 767.747986,280.171783 
	C768.733459,280.186676 769.701904,281.330536 770.678223,281.950745 
	C769.759094,282.636505 768.896301,283.797668 767.909851,283.914368 
	C765.457458,284.204529 762.948608,284.018524 759.967285,284.023743 
z"/>
<path fill="#13BDDC" opacity="1.000000" stroke="none" 
	d="
M858.016418,283.835144 
	C855.312805,283.864410 852.609131,283.893707 849.362427,283.725922 
	C848.541992,283.625366 848.264526,283.721924 847.987061,283.818420 
	C847.246033,283.822540 846.505005,283.826691 845.329468,283.584137 
	C844.761963,283.162476 844.593872,283.033203 844.390625,282.949554 
	C845.243164,282.169617 846.095642,281.389679 847.797729,280.760437 
	C856.878296,280.837616 865.109375,280.764160 873.340393,280.690735 
	C874.157043,280.649689 875.034790,280.396088 875.778076,280.609985 
	C877.556030,281.121552 879.270630,281.853333 881.010803,282.496216 
	C879.290222,282.983002 877.569580,283.469757 875.104248,283.645874 
	C868.911804,283.501892 863.464111,283.668488 858.016418,283.835144 
z"/>
<path fill="#3976D5" opacity="1.000000" stroke="none" 
	d="
M723.718201,348.858337 
	C720.792725,348.854492 718.275024,349.127289 715.864868,348.736603 
	C714.604492,348.532288 713.533081,347.162109 712.376282,346.318512 
	C713.472839,345.582153 714.511597,344.343964 715.677490,344.209747 
	C718.444397,343.891205 721.295227,343.879486 724.063904,344.183594 
	C725.379761,344.328125 726.585327,345.477753 727.840820,346.172119 
	C726.617432,347.067932 725.394043,347.963745 723.718201,348.858337 
z"/>
<path fill="#3976D5" opacity="1.000000" stroke="none" 
	d="
M720.019775,332.819275 
	C717.098999,332.212952 712.672485,334.470551 712.632996,330.458588 
	C712.592712,326.358459 717.024170,328.547180 719.488525,328.094116 
	C721.093628,327.798981 722.851868,327.795135 724.441223,328.132812 
	C725.644592,328.388489 726.689575,329.389984 727.804993,330.059570 
	C726.690125,330.977142 725.701172,332.214691 724.423157,332.717316 
	C723.272156,333.169922 721.804321,332.816956 720.019775,332.819275 
z"/>
<path fill="#3976D5" opacity="1.000000" stroke="none" 
	d="
M721.812927,247.253571 
	C723.720337,247.421310 725.268738,247.353516 726.593689,247.864822 
	C727.198181,248.098129 727.640991,249.480896 727.620483,250.329330 
	C727.608215,250.838379 726.573975,251.731049 725.975464,251.751205 
	C722.179016,251.879074 718.369080,251.928055 714.581238,251.704224 
	C713.875000,251.662491 712.618835,250.144623 712.738770,249.525513 
	C712.903625,248.675385 714.062805,247.533279 714.931030,247.400620 
	C717.033264,247.079437 719.213745,247.270142 721.812927,247.253571 
z"/>
<path fill="#3976D5" opacity="1.000000" stroke="none" 
	d="
M727.672852,378.923035 
	C723.007629,379.731873 718.406433,380.178558 713.794373,380.403290 
	C713.649719,380.410339 712.787598,377.634033 713.301392,377.002136 
	C714.916321,375.016205 725.867371,376.368469 727.672852,378.923035 
z"/>
<path fill="#3976D5" opacity="1.000000" stroke="none" 
	d="
M718.215210,364.846985 
	C716.456116,364.755188 715.093628,364.843201 713.855774,364.491882 
	C713.262756,364.323578 712.464417,363.256989 712.545776,362.715576 
	C712.666626,361.911713 713.452698,360.598389 714.013367,360.568085 
	C717.959839,360.354523 721.924805,360.322021 725.873962,360.479584 
	C726.514343,360.505127 727.716858,361.923553 727.586670,362.412598 
	C727.348206,363.308777 726.389038,364.543976 725.589539,364.658966 
	C723.318726,364.985718 720.976929,364.818848 718.215210,364.846985 
z"/>
<path fill="#3976D5" opacity="1.000000" stroke="none" 
	d="
M714.975098,316.588928 
	C713.942261,315.487976 713.300049,314.484009 712.657776,313.480042 
	C713.639404,313.029236 714.601074,312.250488 715.606445,312.189392 
	C718.565430,312.009552 721.559387,311.926727 724.502502,312.202179 
	C725.641479,312.308807 726.680908,313.479492 727.765686,314.165436 
	C726.601318,315.022339 725.507874,316.467468 724.258362,316.618164 
	C721.333923,316.970764 718.334656,316.702667 714.975098,316.588928 
z"/>
<path fill="#3976D5" opacity="1.000000" stroke="none" 
	d="
M714.839844,235.839294 
	C711.079651,234.101471 712.236084,232.106003 714.787109,231.625839 
	C718.291382,230.966278 722.011169,231.226929 725.611267,231.480804 
	C726.382019,231.535141 727.035828,233.248138 727.743469,234.197021 
	C726.877686,234.761200 726.037048,235.759995 725.141663,235.811829 
	C721.853394,236.002090 718.546875,235.877930 714.839844,235.839294 
z"/>
<path fill="#3976D5" opacity="1.000000" stroke="none" 
	d="
M712.768188,266.725281 
	C713.413391,265.579895 714.157043,264.221497 715.083740,264.082428 
	C718.170532,263.619202 721.333862,263.367798 724.444458,263.518127 
	C725.587341,263.573364 726.665161,264.975159 727.772644,265.762726 
	C726.724915,266.488190 725.675049,267.832306 724.629761,267.828827 
	C720.735901,267.815796 716.843445,267.360291 712.768188,266.725281 
z"/>
<path fill="#3976D5" opacity="1.000000" stroke="none" 
	d="
M727.576477,297.218933 
	C726.928284,298.408417 726.175354,299.833740 725.307983,299.907227 
	C722.008606,300.186646 718.660034,300.189301 715.357422,299.935852 
	C714.393738,299.861908 713.521790,298.592560 712.607788,297.871124 
	C713.462646,297.268036 714.325134,296.138855 715.171082,296.151123 
	C719.256226,296.210266 723.336914,296.576630 727.576477,297.218933 
z"/>
<path fill="#3976D5" opacity="1.000000" stroke="none" 
	d="
M719.121460,280.029449 
	C722.257996,280.856079 725.998291,278.006592 727.679321,282.348572 
	C725.013184,282.915161 722.348450,283.488464 719.679077,284.039490 
	C719.363220,284.104675 718.990601,284.137268 718.697998,284.033478 
	C716.658691,283.310150 714.633484,282.546936 712.603760,281.796509 
	C714.626404,281.208374 716.649109,280.620209 719.121460,280.029449 
z"/>
<path fill="#1C6180" opacity="1.000000" stroke="none" 
	d="
M738.333191,364.546265 
	C756.027954,364.244080 774.053162,364.179993 792.536987,364.210999 
	C792.396973,364.548645 791.797852,365.004272 791.199829,365.002747 
	C773.687744,364.957855 756.175659,364.867462 738.333191,364.546265 
z"/>
<path fill="#3B5571" opacity="1.000000" stroke="none" 
	d="
M808.690125,401.701233 
	C801.638733,402.095245 794.282715,402.207184 786.464966,402.405823 
	C783.300476,402.380920 780.597778,402.269318 777.452881,402.063995 
	C779.726501,401.655792 782.441956,401.080109 785.158264,401.076447 
	C792.900513,401.065948 800.643127,401.288361 808.690125,401.701233 
z"/>
<path fill="#1E9DB6" opacity="1.000000" stroke="none" 
	d="
M872.964233,280.467529 
	C865.109375,280.764160 856.878296,280.837616 848.157227,280.805603 
	C855.974182,280.548187 864.281189,280.396240 872.964233,280.467529 
z"/>
<path fill="#1E9DB6" opacity="1.000000" stroke="none" 
	d="
M858.472656,283.936951 
	C863.464111,283.668488 868.911804,283.501892 874.671631,283.599152 
	C869.632080,283.921631 864.280457,283.980225 858.472656,283.936951 
z"/>
<path fill="#82DCEB" opacity="1.000000" stroke="none" 
	d="
M815.578674,402.337952 
	C814.401184,402.650818 812.818359,402.859253 811.127808,402.761993 
	C812.404541,402.382050 813.788940,402.307831 815.578674,402.337952 
z"/>
<path fill="#5ED2E6" opacity="1.000000" stroke="none" 
	d="
M739.588745,402.353638 
	C738.723755,402.658813 737.472534,402.853149 736.124084,402.761719 
	C737.085388,402.398224 738.144043,402.320496 739.588745,402.353638 
z"/>
<path fill="#1C6180" opacity="1.000000" stroke="none" 
	d="
M698.798462,401.775635 
	C698.233887,402.075470 697.490723,402.126892 696.380981,402.102661 
	C696.882812,401.860382 697.751343,401.693787 698.798462,401.775635 
z"/>
<path fill="#1C6180" opacity="1.000000" stroke="none" 
	d="
M738.891479,231.646027 
	C738.837830,231.818802 738.676086,231.864746 738.263367,231.893173 
	C738.269409,231.756821 738.526428,231.638000 738.891479,231.646027 
z"/>
<path fill="#1C6180" opacity="1.000000" stroke="none" 
	d="
M781.911255,231.625259 
	C781.845520,231.785370 781.672485,231.821518 781.240112,231.803116 
	C781.194763,231.422241 781.469116,231.339813 781.911255,231.625259 
z"/>
<path fill="#1C6180" opacity="1.000000" stroke="none" 
	d="
M792.902100,231.669067 
	C792.823364,231.828171 792.653687,231.850082 792.236572,231.804871 
	C792.212341,231.409348 792.486389,231.340744 792.902100,231.669067 
z"/>
<path fill="#1E9DB6" opacity="1.000000" stroke="none" 
	d="
M848.242859,283.886566 
	C848.264526,283.721924 848.541992,283.625366 848.914917,283.674133 
	C848.839905,283.864502 848.669250,283.909576 848.242859,283.886566 
z"/>
<path fill="#1E9DB6" opacity="1.000000" stroke="none" 
	d="
M844.364990,283.157959 
	C844.593872,283.033203 844.761963,283.162476 844.973328,283.475586 
	C845.051758,283.613739 844.635376,283.662750 844.635376,283.662750 
	C844.635376,283.662750 844.339355,283.366333 844.364990,283.157959 
z"/>
<path fill="#E7FCFF" opacity="1.000000" stroke="none" 
	d="
M903.300110,224.323883 
	C897.200378,230.117996 897.191406,230.126617 891.520142,224.230423 
	C889.904846,222.551132 887.966492,221.009354 886.929443,219.013229 
	C886.322510,217.844727 886.748596,215.561508 887.590393,214.441254 
	C888.073914,213.797852 890.756653,213.931168 891.675476,214.673203 
	C893.577759,216.209503 894.963196,218.385818 896.951965,220.766739 
	C902.697266,215.357498 907.716248,210.587158 912.791931,205.877869 
	C914.548767,204.247849 916.252747,201.692963 918.913025,204.770599 
	C921.362854,207.604706 919.140930,209.283386 917.332275,211.012222 
	C912.757874,215.384583 908.151978,219.724030 903.300110,224.323883 
z"/>
<path fill="#2FC5DF" opacity="1.000000" stroke="none" 
	d="
M751.555115,436.024261 
	C750.865173,439.588776 751.975708,441.739899 755.162415,444.057953 
	C758.317444,446.352997 760.383850,450.144440 762.972534,453.628174 
	C753.018188,453.982971 743.017517,454.093323 733.020508,453.948883 
	C728.391357,453.881958 723.761841,453.391663 719.149597,452.924957 
	C718.085999,452.817322 716.823730,452.267273 716.111511,451.496857 
	C712.405884,447.488403 708.848572,443.342834 704.621582,438.543274 
	C706.453613,437.928436 707.820374,437.102081 709.210938,437.059906 
	C723.166382,436.636597 737.125671,436.342072 751.555115,436.024261 
z"/>
<path fill="#29B9D1" opacity="1.000000" stroke="none" 
	d="
M662.600952,430.382996 
	C663.013855,434.135284 663.173950,438.182861 663.619873,442.492493 
	C663.889526,443.082642 664.009155,443.563690 663.837219,443.716309 
	C660.047913,447.079803 659.009338,451.467804 659.037964,456.638367 
	C658.365417,457.428375 657.401733,457.720428 657.145935,458.316315 
	C653.731262,466.271484 650.415466,474.269104 647.035156,482.625061 
	C644.569153,487.624451 642.143188,492.255005 639.373169,496.957428 
	C638.686951,478.993073 638.344849,460.956848 638.014893,442.449646 
	C644.095459,441.838257 650.244080,442.211609 656.189575,441.283783 
	C658.323914,440.950684 662.078125,439.571930 662.024475,435.602692 
	C662.002380,433.962982 662.232666,432.319885 662.600952,430.382996 
z"/>
<path fill="#29B9D1" opacity="1.000000" stroke="none" 
	d="
M638.246887,425.748108 
	C637.794312,424.166504 637.615051,422.338135 637.698730,420.256836 
	C638.147827,421.836395 638.333984,423.668823 638.246887,425.748108 
z"/>
<path fill="#29B9D1" opacity="1.000000" stroke="none" 
	d="
M662.613464,420.326599 
	C662.868469,421.125702 662.903748,422.135559 662.887817,423.520630 
	C662.688965,422.776337 662.541382,421.656830 662.613464,420.326599 
z"/>
</svg>